<?xml version="1.0" standalone="no"?>
<!DOCTYPE svg PUBLIC "-//W3C//DTD SVG 20010904//EN"
 "http://www.w3.org/TR/2001/REC-SVG-20010904/DTD/svg10.dtd">
<svg version="1.0" xmlns="http://www.w3.org/2000/svg"
 width="1792.000000pt" height="1792.000000pt" viewBox="0 0 1792.000000 1792.000000"
 preserveAspectRatio="xMidYMid meet">
<metadata>
Created by potrace 1.14, written by Peter Selinger 2001-2017
</metadata>
<g transform="translate(0.000000,1792.000000) scale(0.100000,-0.100000)"
fill="#000000" stroke="none">
<path d="M5385 17861 c19 -26 35 -53 35 -59 0 -6 4 -12 8 -14 7 -2 99 -146
136 -213 6 -11 37 -63 69 -117 31 -53 57 -101 57 -107 0 -6 3 -11 8 -11 4 0
12 -10 17 -23 15 -31 59 -111 65 -117 12 -12 328 -635 370 -730 14 -30 29 -58
33 -61 5 -3 9 -10 9 -15 1 -13 16 -53 37 -99 40 -83 71 -154 71 -160 0 -3 11
-30 24 -58 22 -49 55 -127 72 -172 4 -11 6 -23 6 -27 -1 -5 2 -8 6 -8 5 0 9
-6 10 -12 1 -15 149 -415 163 -440 5 -10 9 -27 9 -37 0 -11 5 -23 10 -26 6 -3
10 -16 10 -29 0 -12 3 -26 8 -30 4 -4 7 -11 8 -14 2 -22 28 -99 36 -109 6 -7
8 -13 5 -13 -3 0 -2 -12 3 -27 28 -91 67 -219 69 -225 1 -4 3 -13 5 -20 14
-49 28 -104 32 -121 2 -11 10 -43 18 -71 8 -28 20 -78 27 -111 7 -33 14 -64
15 -70 11 -43 46 -208 50 -240 2 -16 7 -38 10 -48 3 -10 7 -31 10 -47 6 -42
12 -80 17 -115 13 -79 28 -174 32 -215 3 -25 7 -58 10 -75 2 -16 6 -64 10
-105 3 -41 8 -88 10 -105 6 -46 18 -340 18 -435 0 -156 -13 -391 -29 -520 -4
-25 -7 -61 -9 -80 -2 -19 -5 -48 -8 -65 -3 -16 -8 -52 -11 -78 -3 -27 -8 -52
-11 -56 -2 -5 -7 -27 -10 -51 -3 -23 -7 -45 -10 -50 -2 -4 -7 -22 -9 -41 -5
-32 -7 -45 -21 -99 -3 -11 -7 -29 -9 -39 -3 -11 -19 -68 -37 -128 -17 -59 -34
-120 -36 -135 -3 -16 -9 -28 -12 -28 -4 0 -8 -6 -8 -12 -1 -32 -86 -242 -164
-404 -21 -45 -39 -86 -39 -93 0 -6 -4 -11 -10 -11 -5 0 -10 -4 -10 -10 0 -8
-30 -64 -85 -159 -11 -18 -53 -85 -124 -196 -24 -38 -60 -95 -79 -125 -19 -30
-45 -71 -57 -90 -62 -96 -79 -126 -77 -132 1 -5 -2 -8 -6 -8 -5 0 -19 -19 -32
-42 -13 -24 -28 -46 -33 -49 -5 -3 -8 -9 -8 -13 1 -5 -34 -66 -77 -132 -6 -10
-15 -26 -19 -34 -4 -8 -11 -19 -15 -25 -16 -19 -78 -127 -78 -136 0 -5 -4 -9
-8 -9 -4 0 -13 -12 -20 -27 -6 -16 -21 -44 -33 -63 -12 -19 -32 -53 -43 -75
-12 -22 -29 -51 -38 -65 -24 -38 -62 -107 -104 -187 -21 -40 -42 -73 -46 -73
-4 0 -8 -6 -8 -12 0 -14 -7 -28 -65 -134 -53 -95 -263 -517 -267 -534 -2 -8
-9 -21 -16 -28 -7 -8 -10 -17 -7 -22 3 -5 2 -10 -3 -12 -4 -1 -27 -48 -51
-103 -24 -55 -55 -124 -69 -154 -13 -30 -25 -61 -26 -68 -1 -7 -8 -19 -14 -25
-7 -7 -12 -17 -12 -24 0 -7 -10 -34 -22 -61 -11 -26 -23 -56 -25 -66 -1 -10
-10 -31 -18 -47 -13 -24 -72 -177 -79 -205 -2 -5 -8 -21 -13 -35 -23 -55 -156
-471 -168 -525 -2 -11 -20 -77 -39 -148 -19 -70 -35 -131 -35 -135 0 -4 -10
-47 -21 -97 -11 -49 -22 -101 -24 -115 -3 -14 -5 -25 -6 -25 -1 0 -4 -11 -5
-25 -6 -39 -15 -93 -21 -120 -3 -14 -8 -38 -10 -55 -3 -16 -9 -59 -15 -95 -5
-36 -11 -81 -13 -100 -2 -19 -7 -55 -10 -80 -23 -180 -31 -344 -30 -620 0
-235 6 -414 18 -505 2 -16 7 -59 11 -95 12 -105 13 -115 15 -115 0 0 3 -16 5
-35 2 -19 6 -51 10 -70 3 -19 8 -46 10 -60 11 -78 38 -208 47 -223 5 -11 7
-21 5 -24 -3 -2 -1 -19 4 -36 6 -18 12 -43 15 -57 8 -39 43 -167 66 -245 12
-38 22 -74 24 -80 3 -16 44 -138 54 -160 5 -11 11 -29 14 -40 7 -27 35 -104
51 -140 8 -16 26 -61 41 -100 25 -66 39 -99 101 -235 45 -100 58 -125 72 -142
8 -10 12 -18 9 -18 -6 0 86 -185 101 -204 7 -10 51 -88 97 -176 11 -19 21 -37
24 -40 12 -12 70 -112 70 -121 0 -5 4 -9 8 -9 5 0 14 -11 20 -26 17 -35 193
-298 203 -302 5 -2 9 -8 9 -13 0 -8 145 -210 200 -279 11 -14 32 -41 47 -60
15 -19 30 -37 33 -40 3 -3 17 -21 31 -40 15 -19 36 -46 48 -60 11 -14 33 -40
48 -59 16 -18 38 -45 51 -59 13 -14 35 -41 50 -60 15 -19 43 -52 63 -73 20
-21 36 -39 35 -41 0 -2 19 -23 43 -48 l43 -45 -28 50 c-15 28 -31 55 -35 60
-23 33 -135 267 -184 385 -14 36 -32 79 -39 95 -8 17 -21 55 -31 85 -10 30
-22 61 -28 68 -5 6 -7 12 -3 12 3 0 -1 17 -9 38 -30 79 -119 414 -139 527 -3
17 -8 40 -10 51 -2 12 -7 37 -10 55 -3 19 -7 43 -10 54 -2 11 -7 45 -11 75 -4
30 -9 64 -11 74 -12 66 -30 261 -39 421 -5 87 -5 459 0 540 2 33 7 101 10 150
4 50 8 105 9 122 0 18 5 33 9 33 5 0 6 4 3 9 -5 8 4 96 19 181 2 14 7 48 10
75 7 59 13 90 15 90 1 0 4 11 5 25 6 41 14 85 15 85 1 0 3 11 6 25 4 24 28
138 40 190 3 14 7 33 7 43 1 9 4 17 7 17 3 0 6 8 7 18 1 21 6 40 34 139 12 43
23 85 24 93 2 8 4 16 5 18 2 1 3 5 4 10 1 4 5 13 9 20 5 6 6 12 3 12 -3 0 3
24 13 53 11 28 31 90 46 137 14 47 35 108 45 135 10 28 33 88 50 135 17 47 37
99 44 115 26 59 51 119 52 125 1 4 10 26 61 140 9 19 17 37 18 40 1 3 14 32
30 65 35 74 31 66 40 93 4 12 11 22 16 22 5 0 9 5 9 12 0 13 110 233 180 358
26 47 56 100 66 119 11 19 23 40 27 45 4 6 38 62 75 124 37 63 75 126 84 140
10 15 21 34 25 42 3 8 9 17 13 20 3 3 21 30 40 60 19 30 37 57 41 60 3 3 8 10
10 15 6 14 101 159 109 165 3 3 16 22 29 43 13 21 28 43 34 50 7 7 28 35 47
62 19 28 38 52 42 53 4 2 8 8 8 13 0 8 138 196 165 225 6 6 32 41 59 77 27 37
53 67 58 67 4 0 8 4 8 10 0 5 9 20 19 32 259 309 516 630 583 728 10 14 49 70
87 125 61 87 134 198 166 253 6 9 31 51 58 93 26 42 47 81 47 87 0 7 3 12 8
12 4 0 13 15 21 33 8 17 17 34 21 37 22 18 271 545 273 578 0 6 4 12 9 12 4 0
8 9 8 20 0 11 5 20 12 20 6 0 9 3 5 6 -5 6 6 43 33 109 11 27 23 58 25 68 2 4
4 9 5 12 1 3 3 8 4 13 1 4 15 48 31 97 16 50 30 93 31 98 1 4 2 8 4 10 1 1 3
9 5 17 1 9 12 50 23 91 12 42 23 86 26 100 63 296 67 320 80 434 2 17 5 30 6
30 4 0 16 129 26 290 13 212 9 492 -11 685 -17 173 -26 235 -57 395 -11 61
-22 117 -23 125 -1 8 -5 22 -8 30 -3 8 -8 29 -10 45 -8 49 -17 86 -38 160 -11
39 -27 95 -35 125 -8 30 -22 74 -31 98 -8 23 -16 48 -17 55 -2 6 -5 19 -9 27
-3 8 -24 69 -48 135 -23 66 -46 124 -51 130 -4 5 -8 15 -8 22 0 8 -9 33 -21
56 -11 23 -22 49 -24 57 -5 22 -90 209 -147 321 -26 53 -48 101 -48 108 0 6
-3 11 -8 11 -4 0 -14 15 -21 33 -12 27 -46 88 -184 330 -7 12 -15 26 -20 31
-27 38 -107 168 -107 174 0 5 -8 17 -18 28 -10 10 -29 37 -42 59 -13 22 -27
42 -30 45 -3 3 -17 23 -30 45 -13 22 -27 42 -30 45 -3 3 -17 21 -30 40 -25 36
-215 294 -237 320 -7 8 -35 44 -63 80 -69 88 -121 151 -142 172 -10 10 -18 22
-18 27 0 5 -4 11 -9 13 -4 2 -43 44 -86 93 -43 50 -83 95 -89 101 -6 6 -45 49
-86 95 -82 92 -497 509 -601 604 -136 125 -166 152 -239 215 -41 36 -88 76
-104 90 -16 14 -34 30 -40 35 -6 6 -36 30 -66 55 -30 25 -66 55 -80 67 -39 33
-155 126 -185 147 -14 11 -35 27 -45 35 -43 36 -57 48 -90 71 -19 13 -37 27
-40 30 -3 3 -63 48 -135 100 -71 51 -147 106 -167 122 -20 15 -42 28 -47 28
-6 0 -11 5 -11 12 0 6 -3 9 -6 5 -4 -3 -13 0 -21 8 -32 33 -31 12 2 -34z"/>
<path d="M9293 15153 c7 -13 51 -108 52 -113 1 -7 44 -122 54 -145 17 -37 75
-201 127 -355 9 -25 18 -52 21 -60 3 -8 7 -19 9 -25 5 -20 76 -250 81 -265 4
-8 7 -19 8 -25 2 -5 11 -37 21 -70 19 -66 20 -70 28 -103 3 -12 7 -26 10 -30
3 -5 7 -19 10 -33 3 -13 15 -60 26 -104 12 -44 23 -89 25 -100 3 -11 9 -40 16
-65 6 -25 12 -52 14 -60 2 -8 4 -15 5 -15 1 0 3 -7 5 -15 8 -36 14 -67 20
-100 4 -19 9 -42 13 -50 3 -8 6 -22 7 -30 1 -8 7 -40 13 -70 7 -30 14 -66 17
-80 3 -14 10 -50 16 -80 6 -30 12 -64 14 -75 1 -11 3 -20 4 -20 2 0 4 -16 6
-35 2 -19 5 -46 8 -60 3 -14 10 -56 16 -95 6 -38 13 -86 16 -105 8 -45 11 -72
19 -144 4 -33 9 -73 11 -90 2 -17 7 -58 10 -91 3 -33 8 -78 10 -100 28 -270
34 -791 11 -1045 -3 -30 -8 -89 -12 -130 -8 -84 -12 -115 -14 -115 -1 0 -3
-13 -4 -30 -4 -38 -16 -131 -22 -159 -2 -12 -7 -41 -10 -66 -3 -25 -8 -48 -11
-53 -2 -4 -6 -19 -9 -32 -2 -14 -6 -36 -9 -50 -3 -14 -7 -37 -10 -52 -3 -16
-20 -80 -36 -143 -17 -63 -33 -122 -34 -130 -2 -8 -4 -16 -5 -17 -2 -2 -3 -6
-5 -10 -1 -5 -4 -15 -7 -23 -3 -8 -23 -64 -43 -125 -20 -60 -43 -123 -50 -140
-7 -16 -28 -64 -45 -105 -18 -41 -36 -79 -41 -85 -5 -5 -9 -17 -9 -27 0 -10
-5 -18 -12 -18 -6 0 -9 -2 -6 -6 3 -3 -5 -24 -18 -47 -13 -23 -31 -58 -41 -77
-9 -19 -40 -73 -68 -120 -28 -47 -58 -96 -66 -110 -7 -14 -16 -27 -19 -30 -3
-3 -28 -36 -55 -75 -47 -67 -144 -192 -175 -225 -8 -9 -55 -61 -105 -115 -49
-54 -106 -115 -125 -135 -48 -52 -202 -219 -234 -255 -15 -16 -37 -41 -49 -55
-77 -85 -137 -152 -175 -196 -23 -27 -53 -60 -65 -74 -12 -14 -47 -54 -76 -90
-30 -36 -57 -67 -60 -70 -3 -3 -31 -36 -62 -75 -31 -38 -68 -83 -82 -100 -26
-30 -143 -177 -184 -231 -12 -16 -49 -65 -82 -109 -33 -44 -64 -84 -68 -90 -5
-5 -24 -32 -43 -60 -19 -27 -38 -52 -41 -55 -3 -3 -26 -34 -50 -70 -24 -36
-47 -69 -52 -75 -14 -17 -214 -322 -229 -348 -21 -40 -69 -120 -87 -147 -10
-14 -31 -50 -47 -80 -16 -30 -31 -57 -34 -60 -3 -3 -17 -27 -30 -55 -14 -27
-28 -52 -31 -55 -3 -3 -19 -33 -35 -68 -16 -34 -32 -62 -36 -62 -5 0 -8 -5 -8
-12 0 -7 -20 -53 -44 -103 -66 -137 -92 -194 -121 -265 -14 -36 -30 -74 -34
-85 -5 -11 -16 -36 -24 -55 -45 -106 -182 -527 -194 -595 -1 -11 -14 -67 -28
-125 -14 -58 -28 -121 -31 -140 -3 -19 -8 -38 -10 -42 -2 -3 -6 -26 -9 -50 -2
-23 -7 -54 -10 -68 -7 -34 -14 -87 -20 -140 -3 -25 -7 -54 -9 -65 -4 -21 -16
-170 -22 -270 -7 -118 -2 -570 6 -570 0 0 3 -31 6 -70 5 -76 11 -130 14 -130
1 0 3 -20 5 -45 4 -52 11 -101 26 -185 7 -33 13 -69 14 -80 5 -35 16 -89 20
-105 2 -8 7 -27 10 -42 14 -72 17 -86 27 -123 6 -22 13 -48 15 -58 7 -39 56
-212 95 -332 12 -38 23 -72 23 -75 1 -3 4 -12 7 -20 4 -8 28 -73 54 -145 26
-71 52 -143 59 -160 12 -27 25 -61 30 -75 1 -3 9 -22 19 -42 9 -21 16 -40 16
-43 0 -3 11 -25 25 -50 13 -25 23 -45 20 -45 -6 0 236 -484 245 -490 4 -3 17
-25 28 -50 11 -25 31 -61 44 -80 13 -19 30 -48 38 -65 8 -16 21 -36 27 -43 7
-7 16 -24 19 -38 3 -13 10 -24 15 -24 5 0 9 -6 9 -12 0 -7 10 -24 21 -38 17
-20 20 -21 14 -5 -21 60 -76 233 -80 250 -2 11 -4 20 -5 20 -2 0 -1 -1 -25
105 -40 177 -45 206 -40 217 2 7 0 15 -4 17 -5 3 -9 20 -9 38 0 18 -1 35 -2
38 -4 8 -10 50 -14 100 -3 25 -5 45 -6 45 -1 0 -3 20 -4 45 -2 25 -7 104 -11
175 -4 72 -7 146 -6 165 0 19 0 62 0 95 -1 33 -1 65 -1 70 0 19 12 200 17 250
12 122 17 162 20 185 2 14 6 45 9 70 4 25 8 56 11 70 3 14 7 41 10 60 14 81
58 282 82 370 14 52 26 101 26 108 0 6 4 12 9 12 5 0 6 5 3 10 -4 6 -1 17 5
25 7 8 10 15 7 15 -3 0 15 60 40 133 25 72 45 138 46 145 0 6 3 12 6 12 4 0
13 21 21 47 7 26 19 59 27 73 7 14 13 28 13 32 0 4 11 31 24 60 32 72 65 148
65 151 0 10 157 314 165 319 6 4 8 8 4 8 -4 0 15 39 42 86 28 47 50 90 50 95
0 5 4 9 9 9 5 0 14 12 20 28 6 15 30 56 53 92 23 36 62 97 86 135 25 39 54 80
65 93 11 12 17 22 13 22 -4 0 -1 6 6 14 7 7 42 55 78 105 36 51 80 111 97 134
18 23 41 52 50 65 10 13 23 29 28 35 6 7 37 46 70 87 119 150 277 329 420 477
50 51 90 93 89 93 -2 0 168 167 257 252 70 66 197 182 257 233 20 17 46 40 58
53 13 12 25 22 28 22 3 0 18 12 34 27 16 16 48 44 73 64 80 66 234 193 259
215 14 12 43 38 65 58 22 19 44 36 48 36 5 0 5 5 2 10 -3 6 -1 10 5 10 6 0 26
15 44 33 18 17 66 64 107 103 95 91 239 242 309 323 30 35 66 76 79 90 13 14
35 42 50 61 14 19 28 37 31 40 4 3 19 23 35 45 17 22 32 42 35 45 3 3 23 30
45 60 22 30 42 57 45 60 3 3 21 30 40 60 19 30 37 57 40 60 12 10 143 226 190
313 48 89 173 345 174 357 1 5 48 122 67 165 19 45 67 195 62 195 -3 0 0 7 7
15 6 8 13 24 15 37 2 13 15 66 29 118 15 52 29 111 32 130 3 19 8 38 11 43 2
4 6 20 9 35 2 15 11 63 19 107 24 135 29 179 51 455 4 57 7 367 4 380 -1 3 -3
39 -5 80 -2 41 -6 102 -9 135 -4 33 -9 85 -11 115 -3 30 -8 66 -10 80 -3 14
-8 43 -10 66 -3 22 -16 99 -30 170 -14 71 -28 144 -30 162 -3 19 -14 64 -24
100 -10 37 -19 70 -20 75 0 4 -1 8 -2 10 0 1 -2 10 -5 20 -2 9 -6 25 -8 35 -3
9 -5 17 -6 17 -1 0 -3 7 -5 15 -10 50 -121 402 -142 450 -3 8 -7 17 -8 20 -1
3 -7 19 -14 35 -6 17 -16 44 -22 60 -6 17 -17 44 -24 60 -7 17 -29 68 -48 115
-72 175 -267 580 -295 613 -8 9 -12 17 -7 17 4 0 3 6 -3 13 -10 12 -59 95
-115 197 -17 30 -57 97 -89 148 -32 51 -58 97 -58 103 0 5 -4 9 -9 9 -5 0 -11
8 -14 18 -7 20 -167 263 -202 307 -14 17 -25 35 -25 42 0 6 -3 13 -7 15 -5 2
-37 44 -73 93 -35 50 -112 152 -170 229 -58 76 -109 146 -115 155 -5 8 -15 20
-21 26 -7 5 -42 48 -80 95 -37 47 -75 92 -83 101 -9 9 -30 34 -47 55 -18 22
-44 51 -59 67 -15 15 -25 27 -22 27 3 0 -9 15 -26 33 -18 18 -68 73 -112 122
-106 118 -310 325 -319 325 -4 0 -5 -3 -3 -7z"/>
<path d="M12274 11674 c2 -16 5 -29 6 -29 2 0 6 -19 14 -65 8 -43 24 -128 29
-155 5 -21 17 -100 23 -145 2 -14 6 -43 9 -65 3 -22 10 -74 16 -115 13 -96 23
-211 24 -277 0 -29 3 -53 6 -53 3 0 6 -19 6 -42 1 -24 4 -106 8 -183 11 -225
7 -630 -9 -790 -2 -22 -7 -74 -11 -115 -11 -118 -23 -217 -30 -260 -2 -14 -7
-45 -10 -70 -5 -38 -43 -255 -49 -285 -4 -16 -17 -78 -21 -100 -2 -11 -4 -21
-5 -22 -3 -4 -3 -4 -20 -78 -15 -69 -14 -63 -35 -135 -9 -30 -18 -63 -20 -73
-13 -56 -122 -364 -166 -469 -66 -160 -182 -390 -260 -520 -72 -120 -179 -282
-191 -286 -4 -2 -8 -10 -8 -18 0 -8 -4 -14 -10 -14 -5 0 -10 -6 -10 -14 0 -8
-3 -16 -8 -18 -4 -1 -23 -23 -42 -48 -39 -50 -60 -77 -75 -94 -136 -158 -303
-330 -409 -421 -26 -22 -57 -49 -70 -60 -37 -32 -67 -57 -121 -100 -27 -22
-52 -42 -55 -45 -3 -3 -21 -17 -40 -32 -19 -14 -49 -39 -67 -54 -18 -16 -45
-39 -60 -51 -15 -12 -42 -34 -60 -50 -17 -15 -59 -50 -92 -78 -33 -27 -61 -53
-61 -57 0 -5 -4 -8 -10 -8 -5 0 -28 -18 -50 -40 -22 -22 -42 -40 -44 -40 -2 0
-20 -15 -39 -32 -19 -18 -79 -73 -133 -123 -193 -176 -598 -591 -689 -708 -5
-7 -26 -31 -45 -53 -46 -54 -64 -75 -138 -169 -35 -44 -70 -88 -77 -97 -42
-52 -204 -284 -248 -355 -119 -192 -156 -256 -162 -274 -4 -10 -11 -19 -16
-19 -6 0 -8 -4 -4 -9 3 -5 1 -12 -4 -16 -19 -11 -224 -444 -224 -472 0 -7 -4
-13 -9 -13 -4 0 -8 -7 -8 -15 0 -12 -26 -86 -61 -170 -9 -23 -59 -183 -64
-205 -2 -8 -10 -42 -19 -75 -9 -33 -19 -71 -22 -85 -3 -14 -7 -33 -10 -42 -8
-25 -15 -60 -20 -98 -3 -19 -9 -51 -14 -70 -8 -30 -21 -123 -45 -315 -17 -130
-23 -489 -11 -650 9 -127 15 -193 20 -233 3 -20 8 -59 12 -87 3 -27 8 -59 10
-70 2 -11 6 -36 9 -55 3 -19 10 -60 16 -90 6 -30 12 -64 14 -75 3 -21 43 -198
50 -225 39 -151 61 -227 96 -335 23 -71 42 -136 42 -142 0 -7 4 -13 9 -13 4 0
7 -3 6 -7 -3 -11 48 -153 107 -298 5 -11 9 -22 10 -25 4 -12 38 -88 53 -120 9
-19 16 -37 17 -40 0 -3 8 -21 17 -40 50 -108 62 -136 60 -143 -1 -5 2 -6 8 -2
6 3 7 12 3 18 -4 7 -8 17 -9 22 -1 6 -5 26 -9 45 -3 19 -10 53 -15 75 -33 151
-43 283 -42 555 0 202 6 343 17 400 2 14 7 50 11 80 3 30 12 85 19 123 7 37
10 67 8 67 -3 0 -1 6 4 13 5 6 9 19 8 27 -1 8 3 26 8 40 5 14 10 37 12 51 2
14 11 55 20 90 10 35 19 71 20 79 2 8 4 17 5 20 1 3 2 8 1 13 0 4 4 7 10 7 5
0 8 4 5 8 -5 8 61 223 75 247 7 11 28 75 30 90 1 6 10 26 20 45 11 19 19 38
19 42 0 5 11 31 25 60 14 28 25 58 25 65 0 7 5 13 10 13 6 0 10 6 10 14 0 16
127 265 184 361 59 100 158 253 218 339 32 45 63 90 70 100 7 10 34 46 61 80
26 34 57 74 70 90 12 15 27 33 32 40 6 6 34 41 64 76 30 36 62 72 70 81 9 9
52 56 96 104 190 208 481 482 662 622 15 12 37 30 48 40 12 10 41 34 65 53 25
19 47 38 48 42 2 4 10 8 17 8 7 0 15 4 17 8 2 5 41 37 88 71 47 34 93 68 102
76 9 7 25 18 36 24 11 6 26 17 34 24 7 7 74 53 148 102 74 50 137 92 140 95 3
3 37 25 75 49 39 24 86 57 106 72 20 16 39 26 43 22 3 -3 6 -1 6 5 0 5 16 20
35 32 20 12 43 29 52 38 9 10 19 17 23 17 3 0 12 6 20 12 71 59 140 113 144
113 3 0 20 13 38 29 18 16 56 48 83 71 232 195 483 454 668 690 60 76 127 171
127 179 0 5 4 11 8 13 8 3 113 160 125 188 4 8 16 29 27 45 44 70 175 327 214
425 15 36 31 74 36 85 10 20 70 192 75 210 1 6 5 17 8 25 26 68 104 382 111
450 2 14 6 32 9 40 6 15 14 63 22 135 2 22 6 58 9 80 22 189 29 635 13 825
-18 207 -24 262 -43 360 -3 14 -7 43 -9 65 -6 46 -12 79 -19 103 -3 10 -8 31
-10 47 -2 17 -6 41 -10 55 -3 14 -8 36 -11 50 -5 31 -35 160 -40 180 -3 8 -12
42 -20 75 -21 82 -21 81 -45 160 -12 39 -28 90 -35 115 -7 25 -23 72 -34 105
-12 33 -23 68 -26 78 -2 9 -7 23 -12 30 -4 6 -9 20 -10 30 -2 10 -12 37 -22
60 -10 23 -22 53 -26 67 -3 14 -13 39 -20 55 -7 17 -27 64 -43 105 -17 41 -38
92 -46 112 -9 21 -16 41 -15 44 0 4 -4 10 -11 14 -6 4 -13 13 -14 21 -2 8 -6
23 -11 34 -9 24 -212 434 -225 455 -38 62 -95 168 -97 180 -1 8 -7 16 -12 18
-6 2 -11 10 -11 18 0 8 -4 14 -8 14 -4 0 -13 12 -19 28 -7 15 -18 36 -25 47
-7 11 -30 45 -50 77 -21 31 -38 59 -38 61 0 3 -31 51 -69 107 -54 79 -69 96
-67 74z"/>
</g>
</svg>
