<?xml version="1.0" encoding="utf-8"?>
<svg viewBox="144.0002 -58.5857 196.8796 503.9548" xmlns="http://www.w3.org/2000/svg">
  <g transform="matrix(0, 0.039438, 0.039438, 0, 116.731717, -59.042885)" fill="#000000" stroke="none" style="">
    <path d="M7816 5657 c59 -52 87 -122 82 -206 -2 -36 -13 -86 -24 -110 l-20 -45 -26 45 c-38 65 -101 124 -166 156 -183 89 -401 -14 -418 -199 -5 -45 -1 -62 23 -108 85 -166 330 -163 512 6 l59 55 8 -33 c12 -56 7 -184 -11 -245 -26 -88 -90 -204 -151 -272 -31 -34 -108 -98 -172 -144 -141 -99 -363 -313 -509 -487 -58 -69 -189 -235 -291 -370 -366 -481 -477 -616 -667 -805 -387 -386 -801 -612 -1291 -704 -220 -41 -378 -47 -574 -19 -110 15 -114 24 -13 31 187 13 385 115 554 287 153 155 242 309 348 598 67 182 95 236 153 294 58 58 118 83 203 82 167 -1 286 -117 289 -280 1 -94 -36 -171 -109 -223 -44 -32 -56 -36 -111 -36 -48 0 -69 5 -91 21 -97 72 -96 192 1 224 34 11 81 5 104 -13 8 -6 12 -6 12 1 0 23 -71 72 -104 72 -64 0 -135 -73 -151 -157 -15 -80 43 -171 141 -219 70 -34 145 -31 227 11 239 120 275 408 79 617 -66 71 -139 103 -232 103 -104 0 -188 -40 -279 -133 -82 -84 -119 -153 -214 -403 -114 -298 -168 -395 -293 -525 -169 -174 -377 -278 -581 -291 -120 -8 -199 8 -293 59 -197 105 -383 278 -675 628 -211 253 -434 480 -560 569 -180 127 -396 214 -610 247 -124 20 -432 14 -575 -11 -545 -92 -924 -356 -1145 -797 -50 -100 -144 -362 -133 -373 5 -6 332 -75 353 -75 8 0 15 8 15 18 0 46 66 248 114 347 153 318 416 518 809 614 333 82 641 59 902 -68 205 -100 363 -236 679 -586 239 -263 354 -376 511 -500 469 -370 842 -507 1335 -492 229 7 389 35 813 142 451 114 601 133 773 100 43 -8 112 -31 154 -50 41 -19 66 -28 55 -19 -34 27 -118 63 -201 85 -61 16 -109 21 -214 21 -154 0 -266 -16 -623 -93 -293 -63 -437 -86 -614 -99 -236 -17 -473 11 -684 81 -135 44 -137 49 -19 42 179 -10 429 23 665 88 391 108 725 302 1075 624 293 270 704 463 1109 519 140 20 366 20 491 1 157 -23 354 -88 454 -149 l40 -24 -65 -32 c-258 -131 -520 -398 -640 -654 -67 -143 -84 -221 -83 -386 0 -133 2 -152 28 -225 37 -106 87 -187 162 -261 183 -179 483 -216 736 -88 97 48 152 89 231 174 369 391 286 1054 -179 1432 l-66 53 29 12 c115 48 378 55 522 13 332 -95 547 -372 528 -680 -11 -184 -98 -333 -250 -431 -33 -22 -56 -39 -50 -39 20 0 129 78 169 121 54 59 90 123 121 212 32 91 36 236 9 337 -57 212 -227 395 -444 478 -120 46 -183 57 -337 56 -117 -1 -156 -6 -239 -27 l-99 -27 -57 35 c-200 122 -431 183 -715 192 -202 6 -352 -9 -520 -52 -54 -14 -100 -23 -102 -21 -6 6 190 93 302 135 204 75 411 126 635 156 181 25 532 30 743 11 l179 -16 101 -54 c214 -114 434 -200 657 -256 262 -66 450 -84 789 -77 264 5 373 16 781 77 313 47 365 52 565 60 l190 8 -220 -3 c-193 -2 -263 -8 -575 -48 -454 -59 -622 -71 -880 -64 -426 13 -751 91 -1139 273 -63 30 -112 56 -109 59 2 3 135 -13 294 -34 361 -50 483 -61 654 -61 157 0 292 18 408 55 98 31 107 43 12 15 -218 -64 -472 -59 -945 21 -179 30 -248 47 -195 48 47 2 143 56 193 110 47 50 58 70 199 371 84 178 137 224 229 200 76 -21 121 -93 104 -169 -15 -72 -88 -116 -143 -87 -70 36 -50 127 24 113 24 -4 24 -3 8 14 -51 56 -130 -33 -98 -109 31 -75 131 -92 202 -35 76 61 94 156 46 251 -61 122 -195 143 -302 46 -44 -39 -58 -63 -132 -231 -105 -239 -134 -294 -187 -354 -65 -72 -125 -92 -278 -91 -66 0 -167 7 -225 16 -222 33 -409 47 -630 48 -350 1 -594 -34 -910 -128 -178 -54 -471 -183 -638 -283 -29 -17 -55 -31 -57 -31 -2 0 29 44 69 98 40 53 126 171 191 262 296 412 496 656 652 797 412 371 797 491 1403 438 l55 -4 -50 11 c-28 6 -157 11 -295 12 -199 1 -262 -2 -335 -17 -122 -24 -239 -60 -345 -107 l-89 -38 39 52 c47 62 94 160 115 241 17 68 20 202 4 259 -9 32 -7 46 12 90 30 71 37 173 14 232 -19 50 -65 108 -99 126 -11 6 -3 -6 20 -25z m-160 -187 c68 -33 121 -87 155 -157 19 -39 20 -46 6 -66 -23 -35 -117 -104 -181 -132 -70 -31 -164 -42 -224 -26 -26 7 -62 29 -88 53 -66 61 -81 135 -43 218 25 56 53 86 104 113 90 46 174 45 271 -3z m570 -2462 c220 -165 363 -395 409 -657 82 -464 -235 -909 -668 -938 -285 -18 -528 168 -591 454 -42 189 2 419 116 609 111 185 304 384 483 496 63 40 157 88 170 88 7 0 43 -23 81 -52z"/>
    <path d="M7983 2553 c9 -16 27 -85 41 -152 29 -142 47 -184 96 -223 55 -44 240 -84 277 -60 15 10 -79 103 -182 182 -69 52 -114 97 -115 113 0 5 14 -5 30 -22 17 -16 58 -47 93 -67 91 -55 130 -89 163 -141 l29 -47 3 82 c6 185 -38 237 -253 292 -75 19 -124 37 -188 68 -5 2 -2 -9 6 -25z"/>
    <path d="M9063 5289 c-7 -7 -63 -37 -125 -68 -147 -73 -158 -88 -158 -216 0 -57 5 -98 13 -108 11 -16 15 -12 43 30 17 27 44 79 60 116 16 37 41 82 57 100 l27 32 -20 -36 c-11 -19 -28 -60 -39 -91 -24 -71 -44 -107 -75 -140 -14 -15 -26 -29 -26 -31 0 -11 111 18 151 39 68 38 81 67 90 208 4 67 10 133 14 149 8 30 5 33 -12 16z"/>
    <path d="M8517 5249 c-21 -11 -77 -34 -125 -50 -163 -58 -192 -89 -192 -210 0 -49 5 -82 14 -95 14 -19 15 -19 38 3 13 12 38 48 57 80 72 122 94 154 115 165 l21 11 -21 -24 c-12 -13 -38 -60 -58 -103 -22 -49 -52 -94 -77 -118 -47 -45 -39 -47 69 -23 138 32 162 62 174 220 4 62 12 125 18 139 5 14 8 26 7 26 -1 -1 -19 -10 -40 -21z"/>
    <path d="M9305 4834 c-38 -10 -155 -67 -155 -75 0 -5 17 -9 38 -9 44 0 126 -36 196 -87 27 -19 73 -47 100 -60 46 -22 47 -24 16 -18 -19 4 -89 36 -155 70 -123 65 -199 94 -212 81 -14 -14 52 -122 112 -183 81 -81 111 -87 280 -49 66 14 137 26 158 26 20 0 37 2 37 5 0 3 -17 20 -37 38 -20 18 -70 73 -111 122 -95 114 -127 138 -195 141 -28 2 -61 0 -72 -2z"/>
    <path d="M8838 4813 c6 -2 18 -2 25 0 6 3 1 5 -13 5 -14 0 -19 -2 -12 -5z"/>
    <path d="M8637 4778 c35 -38 57 -79 84 -156 11 -31 28 -72 39 -91 l20 -36 -27 32 c-16 17 -43 67 -62 110 -18 43 -47 97 -63 121 -43 62 -53 45 -53 -83 0 -88 3 -108 20 -132 25 -34 290 -171 280 -144 -4 9 -10 73 -15 142 -9 142 -22 182 -73 216 -29 19 -135 53 -168 53 -7 0 1 -15 18 -32z"/>
    <path d="M8908 4803 c7 -3 16 -2 19 1 4 3 -2 6 -13 5 -11 0 -14 -3 -6 -6z"/>
    <path d="M8093 4701 c44 -48 53 -66 83 -152 12 -38 33 -84 45 -102 l23 -32 -24 20 c-12 11 -47 70 -76 130 -63 129 -98 178 -113 155 -15 -23 -24 -114 -16 -167 14 -96 45 -127 197 -193 53 -23 102 -48 109 -56 19 -23 28 -16 19 15 -4 16 -11 82 -15 147 -9 150 -25 190 -93 226 -40 22 -129 48 -164 48 -6 0 6 -18 25 -39z"/>
    <path d="M4195 4663 c4 -10 16 -56 26 -103 28 -136 40 -155 111 -184 40 -17 148 -33 148 -22 0 19 -40 61 -107 113 -41 31 -79 66 -85 77 -9 16 -3 14 25 -9 20 -16 58 -45 85 -64 27 -19 58 -47 68 -62 27 -41 37 -24 31 49 -10 102 -44 136 -164 166 -36 9 -84 26 -106 37 -37 20 -39 20 -32 2z"/>
    <path d="M4731 4445 c-13 -44 -28 -96 -34 -116 -5 -19 -7 -48 -3 -63 8 -33 88 -121 128 -142 27 -14 28 -14 28 12 0 15 -18 72 -40 126 -22 55 -40 108 -39 117 0 9 5 3 11 -14 6 -16 24 -53 39 -80 16 -28 33 -74 39 -103 7 -29 15 -50 19 -48 15 9 53 99 58 134 6 49 -14 82 -107 179 l-76 78 -23 -80z"/>
    <path d="M4120 4314 c-171 -26 -264 -67 -350 -153 -147 -146 -200 -395 -120 -557 74 -152 275 -252 427 -215 113 28 173 111 173 235 l-1 71 -24 -46 c-32 -61 -103 -123 -160 -139 -105 -29 -201 9 -260 105 -28 45 -30 56 -30 139 0 79 4 99 29 153 33 73 97 138 171 173 61 29 206 39 294 20 246 -53 435 -281 448 -540 10 -177 -48 -321 -182 -456 -158 -159 -336 -213 -553 -168 -161 33 -282 99 -615 336 -375 266 -638 404 -972 511 -246 79 -452 111 -710 111 -344 0 -582 -50 -826 -176 -304 -156 -558 -416 -719 -737 -50 -101 -135 -332 -128 -352 2 -5 23 36 48 92 88 201 222 417 354 571 245 286 611 463 1055 508 206 20 397 9 642 -40 195 -39 336 -86 504 -170 166 -82 272 -148 601 -374 397 -272 499 -332 662 -387 130 -44 241 -62 382 -61 227 1 380 59 515 196 91 92 140 179 176 312 28 102 31 311 6 423 -65 282 -254 510 -484 581 -102 31 -264 47 -353 34z"/>
    <path d="M5070 4090 c-7 -14 -37 -58 -66 -99 -46 -62 -54 -80 -54 -118 0 -45 30 -117 69 -163 34 -42 43 -13 37 130 l-5 125 15 -75 c9 -45 13 -101 10 -139 l-6 -64 27 24 c107 96 113 131 45 272 -22 45 -44 93 -49 107 l-10 25 -13 -25z"/>
    <path d="M11878 3789 c-20 -10 -79 -34 -132 -53 -116 -41 -173 -72 -200 -109 -18 -25 -21 -43 -21 -132 0 -124 10 -143 53 -102 16 15 50 64 76 110 70 119 97 157 120 169 21 11 21 10 -1 -13 -11 -13 -41 -67 -65 -119 -34 -73 -56 -105 -93 -138 -31 -27 -42 -42 -31 -42 46 0 177 35 220 58 65 36 82 75 91 216 4 59 11 122 16 139 5 17 8 32 6 33 -1 1 -19 -6 -39 -17z"/>
    <path d="M1539 3375 c-83 -17 -191 -47 -186 -52 2 -2 51 3 108 11 456 64 757 -23 1034 -299 143 -143 241 -294 324 -498 95 -233 103 -290 111 -832 6 -413 8 -456 27 -526 60 -215 177 -375 331 -451 55 -28 78 -33 157 -36 161 -7 297 50 426 178 133 132 198 305 172 457 -18 103 -83 224 -162 304 -93 92 -142 114 -256 113 -120 0 -190 -27 -260 -98 -56 -57 -75 -104 -75 -188 0 -152 102 -260 218 -229 23 7 53 22 68 34 l26 23 -42 -4 c-153 -15 -247 151 -148 264 49 56 101 78 183 78 82 0 134 -22 185 -80 189 -216 72 -577 -210 -650 -174 -44 -362 23 -457 165 -82 121 -85 142 -93 591 -6 339 -10 412 -28 513 -67 367 -203 649 -426 884 -173 182 -366 287 -604 328 -104 18 -332 18 -423 0z"/>
    <path d="M11788 3303 c7 -3 16 -2 19 1 4 3 -2 6 -13 5 -11 0 -14 -3 -6 -6z"/>
    <path d="M12121 3265 c-35 -8 -65 -16 -68 -18 -2 -3 24 -18 59 -34 77 -37 150 -97 219 -183 80 -99 130 -150 179 -182 30 -20 37 -28 20 -23 -55 15 -111 59 -240 187 -74 74 -164 153 -200 176 -63 42 -64 43 -72 21 -11 -28 4 -105 37 -199 40 -109 62 -150 108 -198 64 -66 119 -82 342 -98 105 -7 211 -20 238 -28 26 -8 47 -13 47 -11 0 1 -18 30 -41 64 -22 33 -64 118 -93 188 -94 226 -131 284 -210 326 -53 27 -228 34 -325 12z"/>
    <path d="M11383 3220 c43 -46 76 -110 106 -202 12 -37 32 -80 44 -95 l21 -28 -28 25 c-15 14 -50 72 -77 130 -51 106 -108 200 -122 200 -30 0 -40 -208 -14 -272 22 -52 80 -94 195 -144 57 -24 118 -54 134 -66 l31 -21 -7 29 c-4 16 -10 92 -15 169 -5 77 -14 154 -21 170 -25 64 -85 105 -192 130 -91 21 -94 20 -55 -25z"/>
    <path d="M6871 2509 c-13 -5 -89 -16 -168 -24 -192 -19 -236 -42 -273 -143 -11 -30 -23 -81 -27 -113 l-6 -59 42 40 c47 45 88 68 187 105 37 14 84 37 103 52 l36 26 -29 -31 c-16 -17 -82 -59 -146 -92 -139 -72 -191 -112 -172 -132 17 -17 202 -17 254 1 52 17 100 76 134 161 16 41 45 107 65 147 19 40 33 73 30 72 -3 0 -17 -5 -30 -10z"/>
    <path d="M6810 2031 c-82 -27 -127 -51 -140 -77 -16 -29 9 -83 76 -167 82 -103 139 -115 324 -72 58 14 123 25 145 25 l40 1 -38 31 c-21 17 -67 67 -102 112 -79 101 -110 131 -157 150 -47 20 -79 19 -148 -3z m-33 -87 c26 -9 85 -41 130 -71 46 -30 100 -62 120 -70 l38 -14 -39 5 c-22 3 -82 29 -135 59 -53 29 -118 62 -146 72 -27 10 -54 22 -59 27 -17 14 40 9 91 -8z"/>
    <path d="M8970 1960 c-8 -5 -10 -10 -5 -10 6 0 17 5 25 10 8 5 11 10 5 10 -5 0 -17 -5 -25 -10z"/>
  </g>
</svg>