<svg width="28" height="56" viewBox="0 0 28 56" fill="none" xmlns="http://www.w3.org/2000/svg">
<path d="M15.0275 8.59186C15.2048 8.75833 30.4708 23.181 16.8602 34.2526C5.44343 43.5399 9.3802 52.5044 9.45664 52.6749C2.857 42.0437 8.07362 34.5699 14.3703 27.9149C20.6327 21.2965 15.0905 8.73453 15.0275 8.59186Z" fill="url(#paint0_linear_5_150)"/>
<path d="M15.0282 8.59195C15.2055 8.75842 30.4714 23.1821 16.8609 34.2527C14.0576 36.5327 12.1814 38.7926 10.9439 40.9079C8.75143 44.6615 8.57498 47.9583 8.8288 50.1006C7.47204 44.016 7.61419 39.5957 11.7499 34.5332C12.933 33.0852 14.444 31.5839 16.3399 29.9772C24.6925 22.8965 15.195 8.83829 15.0292 8.59415C15.0292 8.59311 15.028 8.59299 15.0282 8.59195Z" fill="url(#paint1_linear_5_150)"/>
<path d="M24.331 19.4277C24.4664 19.5856 34.1323 32.8608 21.5276 41.0192C10.9547 47.8626 13.4663 55.8479 13.5155 56C8.89506 46.352 13.8733 40.2936 20.0013 35.4008C26.9215 29.8756 24.3714 19.5549 24.331 19.4277Z" fill="url(#paint2_linear_5_150)"/>
<path d="M24.3314 19.4279C24.4668 19.5858 34.1325 32.8619 21.528 41.0194C18.9319 42.6994 17.126 44.4478 15.8766 46.1322C13.6625 49.1215 13.2052 51.9084 13.2213 53.7533C12.6349 48.4547 13.1677 44.7094 17.1561 40.7864C18.2969 39.6644 19.7216 38.5273 21.4835 37.336C29.2453 32.0861 24.4502 19.6529 24.3319 19.43C24.3322 19.429 24.3313 19.4288 24.3314 19.4279Z" fill="url(#paint3_linear_5_150)"/>
<path d="M2.70602 0C2.93942 0.149639 23.0418 13.1336 10.1229 28.342C-0.713533 41.0991 5.56717 50.3182 5.68842 50.4931C-3.92128 39.9596 0.354744 30.515 6.01086 21.7635C11.6363 13.06 2.80639 0.14662 2.70602 0Z" fill="url(#paint4_linear_5_150)"/>
<path d="M2.70649 0C2.93989 0.149639 23.0422 13.1349 10.1234 28.342C7.4625 31.4739 5.835 34.3916 4.89217 37.0151C3.22312 41.67 3.71501 45.3966 4.44708 47.7418C1.65619 41.2124 0.891098 36.2354 4.46143 29.7134C5.48279 27.848 6.85997 25.855 8.64607 23.6643C16.5144 14.011 2.94456 0.241233 2.70789 0.00232183C2.70789 0.00104485 2.70649 0.00116089 2.70649 0Z" fill="url(#paint5_linear_5_150)"/>
<defs>
<linearGradient id="paint0_linear_5_150" x1="13.3827" y1="8.65874" x2="15.2532" y2="52.4254" gradientUnits="userSpaceOnUse">
<stop stop-color="#F6A243"/>
<stop offset="1" stop-color="#E6421F"/>
</linearGradient>
<linearGradient id="paint1_linear_5_150" x1="0.113514" y1="42.1281" x2="23.6085" y2="16.4362" gradientUnits="userSpaceOnUse">
<stop stop-color="#F6A243"/>
<stop offset="1" stop-color="#E6421F"/>
</linearGradient>
<linearGradient id="paint2_linear_5_150" x1="21.1919" y1="19.2206" x2="18.7626" y2="56.3415" gradientUnits="userSpaceOnUse">
<stop stop-color="#F6A243"/>
<stop offset="1" stop-color="#E6421F"/>
</linearGradient>
<linearGradient id="paint3_linear_5_150" x1="7.07911" y1="46.7683" x2="30.3646" y2="26.288" gradientUnits="userSpaceOnUse">
<stop stop-color="#F6A243"/>
<stop offset="1" stop-color="#E6421F"/>
</linearGradient>
<linearGradient id="paint4_linear_5_150" x1="0.880476" y1="0.420581" x2="12.0328" y2="49.0378" gradientUnits="userSpaceOnUse">
<stop stop-color="#F6A243"/>
<stop offset="1" stop-color="#E6421F"/>
</linearGradient>
<linearGradient id="paint5_linear_5_150" x1="-6.9744" y1="40.6242" x2="13.968" y2="7.02079" gradientUnits="userSpaceOnUse">
<stop stop-color="#F6A243"/>
<stop offset="1" stop-color="#E6421F"/>
</linearGradient>
</defs>
</svg>
